<svg id="Layer_1" data-name="Layer 1" xmlns="http://www.w3.org/2000/svg" viewBox="0 0 589 354"><defs><style>.cls-1{fill:#f90;}.cls-1,.cls-2,.cls-3,.cls-4,.cls-5,.cls-8{fill-rule:evenodd;}.cls-2{fill:#e62e04;}.cls-3{fill:#ffd200;}.cls-4{fill:#8e48d6;}.cls-5{fill:#8cc000;}.cls-6{fill:#ff4a2c;}.cls-7{fill:#fff;}.cls-8{fill:none;stroke:#fff;stroke-linecap:round;stroke-linejoin:round;stroke-width:3px;}</style></defs><title>Artboard 36</title><path class="cls-1" d="M118.5,120A116.5,116.5,0,1,1,2,236.5,116.5,116.5,0,0,1,118.5,120Z"/><path class="cls-2" d="M273,2A148,148,0,1,1,125,150,148,148,0,0,1,273,2Z"/><path class="cls-3" d="M96,33A26,26,0,1,1,70,59,26,26,0,0,1,96,33Z"/><path class="cls-4" d="M461,203a44,44,0,1,1-44,44A44,44,0,0,1,461,203Z"/><path class="cls-5" d="M522.5,55A65.5,65.5,0,1,1,457,120.5,65.5,65.5,0,0,1,522.5,55Z"/><path class="cls-6" d="M270.44,213c4.78.6,6.79-4.26,12-4,.09,0,4.17,1.25,4.84,1.5,15.89,6,25.26,5.4,35.21-9.56,2.92-4.39,2.09-3.66,7.57-7,4.64-2.86,10.37-7.7,11.33-13.52,1.77-10.82-11.47-17.33-12.17-25.29-.55-6.2,4.24-13,1.3-20.24-1.74-4.32-4.6-3.41-7.27-7.21-2.24-3.2-2.55-10.27-4.47-14.82a47,47,0,0,0-83.38-6.42c-3,4.84-4.18,14.79-7.74,17.48a8.3,8.3,0,0,1,.49-1.87h-1c-.43,1.63-.18,6.16-.79,7.24-1.33,2.37-6.74,3.37-8.27,6.76-2.07,4.55-1.23,18.61,3.11,21.95-7.34,5.42-14.53,16.8-12.23,26.21,2,8.1,9.82,10.28,14,15.85,2.18,2.9,2.48,6.13,5.5,9,4.41,4.18,8.72,5.36,14.76,5.89,8.85.77,14.7-.39,20.24-6.89C263.41,208,271.35,213,270.44,213Zm53-85Zm-6,1c-2,12.09-4.58,19.6-19,16-8.57-2.14-16.3-8.66-21-16Zm-72,16c-11.34,2.62-17-5.57-17-16,13,0,26,.54,39,1C261.91,136.9,254.19,143,245.44,145Z"/><path class="cls-7" d="M318,124a2,2,0,0,1,0,4H225a2,2,0,0,1,0-4h93m0-3H225a5,5,0,0,0,0,10h93a5,5,0,0,0,0-10Z"/><path class="cls-8" d="M268,130s-11,16-30,16c-8,0-10-16-10-16"/><path class="cls-8" d="M260,147s-12,10-26,8-12-27-12-27"/><path class="cls-8" d="M230,154l-4,8s-9-7-3-19"/><path class="cls-8" d="M220.75,129s-7.25,4-7.25,6v16a6.83,6.83,0,0,0,3.13,5"/><path class="cls-8" d="M221,156s-4-1-8,4-9,12-9,18,7,15,18,19"/><path class="cls-8" d="M223,158l-10,13s-6,8-4,17"/><path class="cls-8" d="M262,209s-5,6-17,6-26-7-22-22c3-9,8-8,15-13s9-5,15-5,9-9,19-9"/><path class="cls-8" d="M272,155c-4,0-12,6-27,20"/><path class="cls-8" d="M218,165a30.13,30.13,0,0,1,17,17"/><path class="cls-8" d="M272,184c-4,0-6,0-12,6s-5,7-8,7-3-5-9-5-8,5-8,8,5,6,9,6,8-4,9-8"/><path class="cls-8" d="M248,195c0,4-3,5-5,5,0,0-5,0-5-6"/><path class="cls-8" d="M228,179a39.87,39.87,0,0,0-4,3"/><path class="cls-8" d="M224,174l-4,4"/><path class="cls-8" d="M220,171a7.47,7.47,0,0,0-3,3"/><path class="cls-8" d="M277,130s11,16,30,16c8,0,10-16,10-16"/><path class="cls-8" d="M315,154l4,8s9-7,3-19"/><path class="cls-8" d="M323.75,129s6.75,4,6.75,6v16a6.12,6.12,0,0,1-2.87,5"/><path class="cls-8" d="M324,156s4-1,8,4,9,12,9,18-7,15-18,19"/><path class="cls-8" d="M322,158l10,13s6,8,4,17"/><path class="cls-8" d="M283,209s5,6,17,6,26-7,22-22c-3-9-8-8-15-13s-9-5-15-5-9-9-19-9"/><path class="cls-8" d="M273,155c4,0,12,6,27,20"/><path class="cls-8" d="M327,165a30.13,30.13,0,0,0-17,17"/><path class="cls-8" d="M273,184c4,0,6,0,12,6s5,7,8,7,3-5,9-5,8,5,8,8-5,6-9,6-8-4-9-8"/><path class="cls-8" d="M297,195c0,4,3,5,5,5,0,0,5,0,5-6"/><path class="cls-8" d="M317,179a39.87,39.87,0,0,1,4,3"/><path class="cls-8" d="M321,174l4,4"/><path class="cls-8" d="M325,171a7.47,7.47,0,0,1,3,3"/><path class="cls-7" d="M273,193v19h-2V193h2m0-3h-2a3,3,0,0,0-3,3v19a3,3,0,0,0,3,3h2a3,3,0,0,0,3-3V193a3,3,0,0,0-3-3Z"/><path class="cls-7" d="M268,197v11h-2V197h2m0-3h-2a3,3,0,0,0-3,3v11a3,3,0,0,0,3,3h2a3,3,0,0,0,3-3V197a3,3,0,0,0-3-3Z"/><path class="cls-7" d="M278,197v11h-2V197h2m0-3h-2a3,3,0,0,0-3,3v11a3,3,0,0,0,3,3h2a3,3,0,0,0,3-3V197a3,3,0,0,0-3-3Z"/><path class="cls-7" d="M263,200v7h-2v-7h2m0-3h-2a3,3,0,0,0-3,3v7a3,3,0,0,0,3,3h2a3,3,0,0,0,3-3v-7a3,3,0,0,0-3-3Z"/><path class="cls-7" d="M283,200v7h-2v-7h2m0-3h-2a3,3,0,0,0-3,3v7a3,3,0,0,0,3,3h2a3,3,0,0,0,3-3v-7a3,3,0,0,0-3-3Z"/><path class="cls-8" d="M232,102q1.25-1.57,2.62-3"/><path class="cls-8" d="M222.09,123A50.21,50.21,0,0,1,229,106.21"/><path class="cls-8" d="M240,94a50.51,50.51,0,0,1,81.11,30"/><path class="cls-8" d="M287,93.92a42.45,42.45,0,0,1,11,6.35"/><path class="cls-8" d="M301,102.9q1.05,1,2,2.1"/></svg>