<svg id="Layer_1" data-name="Layer 1" xmlns="http://www.w3.org/2000/svg" xmlns:xlink="http://www.w3.org/1999/xlink" viewBox="0 0 116.5 93"><defs><style>.cls-1{fill:none;stroke:#0090ff;stroke-linecap:round;stroke-linejoin:round;stroke-width:2px;}.cls-2{fill:url(#linear-gradient);}.cls-3{fill:#fff;}</style><linearGradient id="linear-gradient" x1="58.55" y1="91.56" x2="58.55" y2="58.95" gradientUnits="userSpaceOnUse"><stop offset="0" stop-color="#f90"/><stop offset="1" stop-color="#ffba00"/></linearGradient></defs><title>Artboard 23</title><rect class="cls-1" x="1.25" y="1.5" width="114" height="77" rx="4" ry="4"/><rect class="cls-1" x="9.25" y="9.5" width="98" height="61"/><path class="cls-1" d="M71,54.5,45.61,40A8.68,8.68,0,0,0,37,40L9.63,54.5"/><path class="cls-1" d="M107.29,59.65l-26.38-14a8.68,8.68,0,0,0-8.63,0l-8.36,4.79"/><line class="cls-1" x1="24.25" y1="31.5" x2="9.25" y2="31.5"/><line class="cls-1" x1="58.25" y1="25.5" x2="76.25" y2="25.5"/><line class="cls-1" x1="90.25" y1="20.5" x2="99.25" y2="20.5"/><line class="cls-1" x1="94.25" y1="38.5" x2="107.25" y2="38.5"/><line class="cls-1" x1="43.25" y1="19.5" x2="36.25" y2="19.5"/><circle class="cls-2" cx="58.55" cy="75.26" r="16.3"/><path class="cls-3" d="M64.39,72.51H60.84V69.42a2.51,2.51,0,0,0-5,0v3.08H52.72a2.51,2.51,0,0,0,0,5h3.13v3.58a2.51,2.51,0,0,0,5,0V77.51h3.54a2.51,2.51,0,0,0,0-5Z"/></svg>