<svg id="Layer_1" data-name="Layer 1" xmlns="http://www.w3.org/2000/svg" viewBox="0 0 105 99"><defs><style>.cls-1{fill:none;}.cls-1,.cls-2{stroke:#fff;stroke-linecap:round;stroke-linejoin:round;stroke-width:2px;}.cls-2{fill:#c9331b;}</style></defs><title>Artboard 12</title><path class="cls-1" d="M95.35,49l-.42,0A43,43,0,0,0,9.78,49l-.42,0a8,8,0,1,0,1.16,15.91,43,43,0,0,0,83.68,0A8,8,0,1,0,95.35,49Z"/><path class="cls-2" d="M76,13.69C78.73,6.28,68.19,1,68.19,1s-10,8-19,8C7.19,10,9.62,49,9.62,49l3.58,3c6-3,2-4,4-15s11-13,20-12a112.69,112.69,0,0,1,14.25,2.54c0,.29,1.78.29,1.82,0A112.69,112.69,0,0,1,67.51,25c9-1,18,1,20,12s-2,12,4,15l3.58-3S96.63,24.28,76,13.69Z"/><circle class="cls-1" cx="41.35" cy="55.5" r="4.5"/><path class="cls-1" d="M43.85,42a16.9,16.9,0,0,0-12,6"/><circle class="cls-1" cx="63.35" cy="55.5" r="4.5"/><path class="cls-1" d="M60.85,42a16.9,16.9,0,0,1,12,6"/><path class="cls-1" d="M65.39,77c-2.79-3-7.48-5-12.79-5h-.5c-5.31,0-10,2-12.79,5"/></svg>