<svg id="Layer_1" data-name="Layer 1" xmlns="http://www.w3.org/2000/svg" viewBox="0 0 63 64"><defs><style>.cls-1{fill:#0090ff;}.cls-2{fill:none;stroke:#fff;stroke-linecap:round;stroke-linejoin:round;stroke-width:2px;}</style></defs><title>Artboard 32</title><circle class="cls-1" cx="31.5" cy="31.89" r="31.5"/><path class="cls-2" d="M34.18,35.45l-9.53,3-4.51-1.57a.57.57,0,0,1-.11-1l5.64-3.4"/><path class="cls-2" d="M32,35.74,46.52,40.8a.74.74,0,0,0,.94-1L46.77,38a9.1,9.1,0,0,0-5.53-5.39L27.32,27.77l-.7-3.34a4.27,4.27,0,0,0-2.78-3.16l-5.27-1.83"/><path class="cls-2" d="M24.4,33.11s-6.61-2.3-6.9-4.52c-.26-2,2.87-2.18,2.87-2.18l1-6"/></svg>