<svg id="Layer_1" data-name="Layer 1" xmlns="http://www.w3.org/2000/svg" viewBox="0 0 64 64"><defs><style>.cls-1{fill:#0090ff;}.cls-2{fill:none;stroke:#fff;stroke-linecap:round;stroke-linejoin:round;stroke-width:2px;}</style></defs><title>Artboard 33</title><circle class="cls-1" cx="32.14" cy="31.65" r="31.5"/><path class="cls-2" d="M36.74,31.88l-4.94,8.7-4.38,1.91a.57.57,0,0,1-.78-.69l1.84-6.32"/><path class="cls-2" d="M35.3,33.59l14.13-6.16a.74.74,0,0,0,0-1.35l-1.75-.88A9.1,9.1,0,0,0,40,25L26.49,30.89l-2.78-2a4.27,4.27,0,0,0-4.18-.44L14.41,30.7"/><path class="cls-2" d="M28,36.79s-6.42,2.8-8.13,1.36c-1.53-1.28.64-3.55.64-3.55l-3.31-5.1"/></svg>