<svg id="Layer_1" data-name="Layer 1" xmlns="http://www.w3.org/2000/svg" xmlns:xlink="http://www.w3.org/1999/xlink" viewBox="0 0 228.51 100"><defs><style>.cls-1{fill:#2cbeff;}.cls-2{fill:#fff;}.cls-3{fill:#ffa400;}.cls-4{fill:#f28a00;}.cls-5{fill:url(#linear-gradient);}.cls-6{fill:#ce5b41;}.cls-7{fill:#81aa00;}.cls-8{fill:#e62e04;}</style><linearGradient id="linear-gradient" x1="178.25" y1="61" x2="178.25" y2="20" gradientUnits="userSpaceOnUse"><stop offset="0" stop-color="#f90"/><stop offset="1" stop-color="#ffba00"/></linearGradient></defs><title>Artboard 22</title><path class="cls-1" d="M168.17,85.5l29.93-1L218,80.68a50,50,0,1,0-78.81.16Z"/><path class="cls-2" d="M218,80.68c-7.61-13.46-22-11.52-24.78-13.6l-.1-.09S179,71.5,176.67,70,164,67.08,164,67.08c-2.81,2.08-17.28.12-24.86,13.76A50,50,0,0,0,218,80.68Z"/><path class="cls-3" d="M193,67.12l.05-.13c-3.29-2.62-4.28-12.34-4.28-12.34l-2-6.59-8.16,1.25-8.19-1.25-2,6.59s-1,9.92-4.39,12.42l-.17.1c.43.62,5,7,14.48,12.65C188.33,73.83,193,67.12,193,67.12Z"/><path class="cls-4" d="M178.33,65.71a20.76,20.76,0,0,0,12-3.77,42.32,42.32,0,0,1-1.48-7.28l-2-6.59-8.16,1.25-8.19-1.25-2,6.59a41.91,41.91,0,0,1-1.58,7.58A20.74,20.74,0,0,0,178.33,65.71Z"/><path class="cls-5" d="M195.67,37a4.84,4.84,0,0,0-.67.05V37a17,17,0,0,0-34,0v.05a.78.78,0,0,0-.33-.05,4.93,4.93,0,0,0-4.92,5,5,5,0,0,0,5,5,5.24,5.24,0,0,0,.79-.08,17,17,0,0,0,33.48,0,5,5,0,0,0,.77.08,4.93,4.93,0,0,0,4.92-5A5.07,5.07,0,0,0,195.67,37Z"/><path class="cls-6" d="M190.8,19.76c.14-5.57-5.34-6.76-5.34-6.76a65.13,65.13,0,0,1-9.7,3.11,32.43,32.43,0,0,0-5.29,1.25c-5.66,2.1-12.22,7.39-11.64,20.63,4,0,5,1,5,1s-1-11,3.5-12c2.93-.65,11,1,11,1s8.3-1.65,11.23-1c4.5,1,3.5,12,3.5,12s1-1,5-1C198.49,28.21,195,22.78,190.8,19.76Z"/><path class="cls-2" d="M155.83,60.25,115,43.27V17.38c0-3.73-2.19-6.12-5.92-6.12H7.58C3.86,11.25,0,13.65,0,17.38v64.5c0,3.73,3.86,7.38,7.58,7.38h101.5c3.73,0,5.92-3.65,5.92-7.37V60.25Z"/><path class="cls-7" d="M27.71,58.58,31,59c.7.09,6,1.58,8.21,1.48s7.24-1,8.49-1.76a2.39,2.39,0,0,0,1-2.67,4.91,4.91,0,0,1,1-2.6c.65-1.11,0-2.06,0-2.48s1.18-1.86,1.31-2.44S50.09,46.41,50,46s.79-1.88.93-2.53-.7-1.95-1.11-2.53-1.62-1-5.29-1-4.75-.32-5.13-1,1.23-2.92,1.86-4.22a7.27,7.27,0,0,0,0-6.22c-1.21-2.37-3.11-1.72-3.39-.26a21.68,21.68,0,0,1-1.65,5.4c-.67,1.07-3.34,3-4.27,5.29s-2.25,4.94-3.46,5.7l-.79.28Z"/><path class="cls-8" d="M88.45,40.92l-3.29-.42c-.7-.09-6-1.58-8.21-1.48s-7.24,1-8.49,1.76a2.39,2.39,0,0,0-1,2.67,4.91,4.91,0,0,1-1,2.6c-.65,1.11,0,2.06,0,2.48S65.36,50.38,65.22,51s.85,2.13.94,2.55-.79,1.88-.93,2.53.7,1.95,1.11,2.53,1.62,1,5.29,1,4.75.32,5.13,1-1.23,2.92-1.86,4.22a7.27,7.27,0,0,0,0,6.22c1.21,2.37,3.11,1.72,3.39.26a21.68,21.68,0,0,1,1.65-5.4c.67-1.07,3.34-3,4.27-5.29s2.25-4.94,3.46-5.7l.79-.28Z"/></svg>