<svg id="Layer_1" data-name="Layer 1" xmlns="http://www.w3.org/2000/svg" xmlns:xlink="http://www.w3.org/1999/xlink" viewBox="0 0 111 90"><defs><style>.cls-1{fill:#81aa00;}.cls-2{fill:none;}.cls-2,.cls-3,.cls-4{stroke:#fff;stroke-linecap:round;stroke-linejoin:round;stroke-width:2px;}.cls-3{fill:url(#linear-gradient);}.cls-4{fill:url(#linear-gradient-2);}</style><linearGradient id="linear-gradient" x1="55.63" y1="76" x2="55.63" y2="41" gradientUnits="userSpaceOnUse"><stop offset="0" stop-color="#f90"/><stop offset="1" stop-color="#ffba00"/></linearGradient><linearGradient id="linear-gradient-2" x1="56" y1="63" x2="56" y2="54" xlink:href="#linear-gradient"/></defs><title>конверт</title><polygon class="cls-1" points="55.63 58.5 3 32 55.75 3 110 31 55.63 58.5"/><path class="cls-2" d="M1,31H110a0,0,0,0,1,0,0V84a5,5,0,0,1-5,5H6.25A5.25,5.25,0,0,1,1,83.75V31A0,0,0,0,1,1,31Z"/><polygon class="cls-2" points="109.5 31 55.75 3 2 31 55.75 59 109.5 31"/><circle class="cls-3" cx="55.63" cy="58.5" r="17.5"/><polyline class="cls-4" points="50 58 55 63 62 54"/></svg>