<svg id="Layer_1" data-name="Layer 1" xmlns="http://www.w3.org/2000/svg" xmlns:xlink="http://www.w3.org/1999/xlink" viewBox="0 0 270 111"><defs><style>.cls-1{fill:url(#linear-gradient);}.cls-2{fill:#2cbeff;}.cls-3{fill:#fff;}.cls-4{fill:url(#linear-gradient-2);}</style><linearGradient id="linear-gradient" x1="182.75" y1="44.41" x2="269.75" y2="44.41" gradientUnits="userSpaceOnUse"><stop offset="0" stop-color="#f90"/><stop offset="1" stop-color="#ffba00"/></linearGradient><linearGradient id="linear-gradient-2" x1="112" y1="111" x2="112" y2="50" xlink:href="#linear-gradient"/></defs><title>Artboard 30</title><circle class="cls-1" cx="226.25" cy="44.41" r="43.5"/><path class="cls-2" d="M200.21,45.5,163,36s-46-1-49,0S40,48,37,47,2.79,45.5,2.79,45.5h0A23.51,23.51,0,0,0,24.5,78h154a23.51,23.51,0,0,0,21.71-32.5Z"/><path class="cls-3" d="M178.5,31A23.43,23.43,0,0,0,170,32.6,46,46,0,0,0,89,23,44,44,0,0,0,39,36,23.49,23.49,0,0,0,2.79,45.5,23.5,23.5,0,0,0,24.5,60h154a23.5,23.5,0,0,0,21.71-14.5A23.5,23.5,0,0,0,178.5,31Z"/><path class="cls-3" d="M239.25,33.09a3.5,3.5,0,0,0-3.5,3.5v5a3.5,3.5,0,0,0,7,0v-5A3.5,3.5,0,0,0,239.25,33.09Zm4.36-8.5a1,1,0,0,0-1.37-.36l-12,7a1,1,0,0,0,1,1.73l12-7A1,1,0,0,0,243.61,24.59Z"/><path class="cls-3" d="M213.25,33.09a3.5,3.5,0,0,1,3.5,3.5v5a3.5,3.5,0,1,1-7,0v-5A3.5,3.5,0,0,1,213.25,33.09Zm-4.36-8.5a1,1,0,0,1,1.37-.36l12,7a1,1,0,0,1-1,1.73l-12-7A1,1,0,0,1,208.89,24.59Z"/><path class="cls-3" d="M242.68,65.29a20.57,20.57,0,0,0-32.86,0l-1.64-1.14a22.05,22.05,0,0,1,17.82-9h.5a22.05,22.05,0,0,1,17.82,9Z"/><polygon class="cls-4" points="139 69 116.81 69 124 50 99 50 85 87 103.81 87 94.73 111 139 69"/></svg>