<svg id="Layer_1" data-name="Layer 1" xmlns="http://www.w3.org/2000/svg" viewBox="0 0 21.5 19.25"><defs><style>.cls-1{fill:#ff9900;}</style></defs><title>Artboard 3</title><path class="cls-1" d="M10.75,3A3.48,3.48,0,1,1,7.27,6.46,3.48,3.48,0,0,1,10.75,3m0,8.62c2,0,5.61.27,7.11,1.55a1.49,1.49,0,0,1,.5,1v2.13H3.13V14.15a1.49,1.49,0,0,1,.5-1c1.51-1.28,5.14-1.55,7.11-1.55M10.75,1a5.48,5.48,0,0,0-4.23,9,9.16,9.16,0,0,0-4.14,1.64A3.49,3.49,0,0,0,1.14,14s0,.08,0,.12v2.13a2,2,0,0,0,2,2H18.37a2,2,0,0,0,2-2V14.15s0-.08,0-.12a3.49,3.49,0,0,0-1.25-2.45A9.16,9.16,0,0,0,15,9.94a5.48,5.48,0,0,0-4.23-9Z"/></svg>