<svg id="Layer_1" data-name="Layer 1" xmlns="http://www.w3.org/2000/svg" xmlns:xlink="http://www.w3.org/1999/xlink" viewBox="0 0 87.77 117.5"><defs><style>.cls-1{fill:#2cbeff;}.cls-2{fill:none;}.cls-2,.cls-3{stroke:#fff;stroke-linecap:round;stroke-linejoin:round;stroke-width:2px;}.cls-3{fill:url(#linear-gradient);}</style><linearGradient id="linear-gradient" x1="43.86" y1="61.78" x2="43.86" y2="2.85" gradientUnits="userSpaceOnUse"><stop offset="0" stop-color="#f90"/><stop offset="1" stop-color="#ffba00"/></linearGradient></defs><title>лицо</title><path class="cls-1" d="M79.09,52.18c-4.63-9.05-16-15.11-16-15.11H58.64s-24.08,3.75-24.5,3.75-2.33.17-6.52,2.66-3,4.74-3,4.74,1.56,2.87,3.89,6.42,5,2.16,5,2.16l4.9-1.07,11.66,3.53A4.45,4.45,0,0,1,52,61.78a3.18,3.18,0,0,1-1.34,3.28c-.65.23-3,2-4.68,2.38s-6.57-1.87-10.65-4.38-5.13-1.12-8.27.14-4.58,4.9-5.82,8.12S22.31,79,23.6,81.7c1.12,2,4.71,1,7,1.92s5.58,2.85,6,4.85S38.24,99,39.79,104.22s10.77,9.88,10.77,9.88,3.45-.72,5.56-1.31.27-3.23.28-6.15A31.85,31.85,0,0,1,58,97.8c.81-2.57,4.06-5.25,6.37-8.09s2.76-4.58,3-8-1.29-3.28-1.29-3.28-3.24.8-5.73,1.53-3.47-2.09-3.47-2.09a4.79,4.79,0,0,1-.08-5.67c2.12-2.87,6-1.14,6-1.14a7.74,7.74,0,0,0,7.33.6,11.53,11.53,0,0,1,6.59-1.27,7.35,7.35,0,0,1,3.26,4.91c.59,6.15,3.86,5.14,3.86,5.14C86.88,71.06,83.72,61.23,79.09,52.18ZM4,63.16c-2.16,6.22-.65,17.66-.32,19.3s3.59-3.67,5-5.73a9.58,9.58,0,0,0,1.74-5.95C10.21,69.45,4.83,60.76,4,63.16ZM17.86,41.56A74.83,74.83,0,0,0,10.06,50C9,51.44,9,53.25,10,54.14s3.28.08,5.28-1.12a5.41,5.41,0,0,0,2.91-3.69c.28-1.26.19-1.58,2.17-5.31S19.46,40.33,17.86,41.56Z"/><circle class="cls-2" cx="43.86" cy="73.48" r="41.17"/><path class="cls-2" d="M12.22,87.52A34.36,34.36,0,0,1,11,84.23"/><path class="cls-2" d="M29.17,104.82A34.75,34.75,0,0,1,14.95,92.5"/><path class="cls-2" d="M76,86.24a34.71,34.71,0,0,1-11.64,15.09"/><path class="cls-2" d="M4.15,84.34c1.16-3.79,6.5-9.29,6.5-11.62a5.28,5.28,0,0,0-2.17-4.67C7,66.72,3.69,63.91,4.38,61.78"/><path class="cls-2" d="M20.5,39.59c1.36.7.64,3.63-.86,5.63s-1.17,2.5-1.5,4.67-2.83,3-4.83,4.33-5.4-.82-4.47-2.38"/><path class="cls-2" d="M30.47,41.89c-1,0-7,4-5.83,6.33a34.35,34.35,0,0,0,2.84,4.83c1.32,2,2.82,4.67,5.16,4s8.5-2.17,8.5-1,10.23,2.83,10.53,4.17,1.14,4.5-1,4.83-2.73,3.67-6.78,1.83-6.55-2.5-8.55-3.83-5.5-2.33-9.67,1.17a11.48,11.48,0,0,0-4.42,9.26c-.08,2.07,1.59,9.41,4.09,9.41s6.17.74,7.17,1.45,3.52.55,4.17,5.71,2,12,3.66,15.33,10,8.84,11.78,8.44"/><path class="cls-2" d="M57.61,112.29s-1.63-4.4-1.13-7.74,1-6.83,2.83-8.83,6.67-7.67,7.5-9.5.83-6.33,0-7.5-5,1.33-7.33,1.33-4-4.82-3.1-7,2.79-3.17,5.53-2.34,5.4,2.67,7.9,1.17,5.5-2.17,7-1.5,3.83,3.67,3.17,6.33,4.32,5,4.58,3"/><path class="cls-3" d="M43.86,2.85A21.45,21.45,0,0,0,22.43,24.28a21.14,21.14,0,0,0,.18,2.63C24.33,43.16,41.24,60.27,42,61a2.68,2.68,0,0,0,3.79,0c.72-.72,17.63-17.83,19.35-34A21.32,21.32,0,0,0,43.86,2.85Zm0,29.24a7.81,7.81,0,1,1,7.81-7.81A7.82,7.82,0,0,1,43.86,32.09Z"/></svg>